<svg xmlns="http://www.w3.org/2000/svg" width="22" height="22" viewBox="0 0 22 22" fill="none">
  <g clip-path="url(#clip0_1907_9188)">
    <path d="M15.8326 17.5585C16.7858 17.5585 17.5585 16.7858 17.5585 15.8326C17.5585 14.8794 16.7858 14.1066 15.8326 14.1066C14.8794 14.1066 14.1066 14.8794 14.1066 15.8326C14.1066 16.7858 14.8794 17.5585 15.8326 17.5585Z" stroke="#6B7280" style="stroke:#6B7280;stroke:color(display-p3 0.4196 0.4471 0.5020);stroke-opacity:1;" stroke-width="1.3" stroke-miterlimit="10" stroke-linecap="round" stroke-linejoin="round"/>
    <path d="M17.0165 11.5036L16.8681 10.3097H14.797L14.6485 11.5036C14.2826 11.6038 13.934 11.7494 13.6096 11.9341L12.6603 11.1951L11.1933 12.6597L11.9354 13.61C11.749 13.9327 11.604 14.281 11.5039 14.6479L10.3096 14.797V16.8681L11.5039 17.0172C11.604 17.3841 11.749 17.7321 11.9354 18.0552L11.1933 19.0055L12.6603 20.4701L13.6096 19.731C13.934 19.9154 14.2792 20.0614 14.6485 20.1615L14.797 21.3555H16.8681L17.0166 20.1615C17.3824 20.0614 17.7311 19.9157 18.0555 19.731L19.0048 20.4701L20.4718 19.0055L19.7297 18.0552C19.9161 17.7324 20.0611 17.3841 20.1612 17.0172L21.3555 16.8681V14.797L20.1612 14.6479C20.0611 14.281 19.9161 13.933 19.7297 13.61L20.4718 12.6597L19.0048 11.1951L18.0555 11.9341C17.731 11.7497 17.3859 11.6037 17.0165 11.5036Z" stroke="#6B7280" style="stroke:#6B7280;stroke:color(display-p3 0.4196 0.4471 0.5020);stroke-opacity:1;" stroke-width="1.3" stroke-miterlimit="10" stroke-linecap="round" stroke-linejoin="round"/>
    <path d="M5.82227 4.09638C6.77547 4.09638 7.5482 3.32366 7.5482 2.37046C7.5482 1.41725 6.77547 0.644531 5.82227 0.644531C4.86907 0.644531 4.09634 1.41725 4.09634 2.37046C4.09634 3.32366 4.86907 4.09638 5.82227 4.09638Z" stroke="#6B7280" style="stroke:#6B7280;stroke:color(display-p3 0.4196 0.4471 0.5020);stroke-opacity:1;" stroke-width="1.3" stroke-miterlimit="10" stroke-linecap="round" stroke-linejoin="round"/>
    <path d="M5.82227 14.4519C6.77547 14.4519 7.5482 13.6791 7.5482 12.7259C7.5482 11.7727 6.77547 11 5.82227 11C4.86907 11 4.09634 11.7727 4.09634 12.7259C4.09634 13.6791 4.86907 14.4519 5.82227 14.4519Z" stroke="#6B7280" style="stroke:#6B7280;stroke:color(display-p3 0.4196 0.4471 0.5020);stroke-opacity:1;" stroke-width="1.3" stroke-miterlimit="10" stroke-linecap="round" stroke-linejoin="round"/>
    <path d="M10.6548 9.27412C11.608 9.27412 12.3808 8.50139 12.3808 7.54819C12.3808 6.59499 11.608 5.82227 10.6548 5.82227C9.70163 5.82227 8.92891 6.59499 8.92891 7.54819C8.92891 8.50139 9.70163 9.27412 10.6548 9.27412Z" stroke="#6B7280" style="stroke:#6B7280;stroke:color(display-p3 0.4196 0.4471 0.5020);stroke-opacity:1;" stroke-width="1.3" stroke-miterlimit="10" stroke-linecap="round" stroke-linejoin="round"/>
    <path d="M12.3807 7.54819H15.8326" stroke="#6B7280" style="stroke:#6B7280;stroke:color(display-p3 0.4196 0.4471 0.5020);stroke-opacity:1;" stroke-width="1.3" stroke-miterlimit="10" stroke-linecap="round" stroke-linejoin="round"/>
    <path d="M0.644531 2.37045H4.09634" stroke="#6B7280" style="stroke:#6B7280;stroke:color(display-p3 0.4196 0.4471 0.5020);stroke-opacity:1;" stroke-width="1.3" stroke-miterlimit="10" stroke-linecap="round" stroke-linejoin="round"/>
    <path d="M0.644531 12.7259H4.09634" stroke="#6B7280" style="stroke:#6B7280;stroke:color(display-p3 0.4196 0.4471 0.5020);stroke-opacity:1;" stroke-width="1.3" stroke-miterlimit="10" stroke-linecap="round" stroke-linejoin="round"/>
    <path d="M15.8326 2.37045H7.54819" stroke="#6B7280" style="stroke:#6B7280;stroke:color(display-p3 0.4196 0.4471 0.5020);stroke-opacity:1;" stroke-width="1.3" stroke-miterlimit="10" stroke-linecap="round" stroke-linejoin="round"/>
    <path d="M11.245 12.7259H7.54819" stroke="#6B7280" style="stroke:#6B7280;stroke:color(display-p3 0.4196 0.4471 0.5020);stroke-opacity:1;" stroke-width="1.3" stroke-miterlimit="10" stroke-linecap="round" stroke-linejoin="round"/>
    <path d="M0.644531 7.54819H8.92891" stroke="#6B7280" style="stroke:#6B7280;stroke:color(display-p3 0.4196 0.4471 0.5020);stroke-opacity:1;" stroke-width="1.3" stroke-miterlimit="10" stroke-linecap="round" stroke-linejoin="round"/>
  </g>
  <defs>
    <clipPath id="clip0_1907_9188">
      <rect width="22" height="22" fill="white" style="fill:white;fill-opacity:1;"/>
    </clipPath>
  </defs>
</svg>