<svg xmlns="http://www.w3.org/2000/svg" width="23" height="23" viewBox="0 0 23 23" fill="none">
  <path d="M17.022 11.5091L16.8735 10.3151H14.8024L14.654 11.5091C14.2881 11.6092 13.9394 11.7549 13.615 11.9396L12.6658 11.2005L11.1987 12.6651L11.9408 13.6154C11.7545 13.9382 11.6095 14.2865 11.5093 14.6534L10.315 14.8025V16.8736L11.5093 17.0227C11.6095 17.3896 11.7544 17.7375 11.9408 18.0606L11.1987 19.0109L12.6658 20.4755L13.615 19.7365C13.9395 19.9208 14.2847 20.0668 14.654 20.167L14.8025 21.3609H16.8736L17.022 20.167C17.3879 20.0668 17.7366 19.9212 18.061 19.7365L19.0102 20.4755L20.4773 19.0109L19.7352 18.0606C19.9215 17.7379 20.0665 17.3896 20.1666 17.0227L21.361 16.8736V14.8025L20.1666 14.6534C20.0665 14.2865 19.9216 13.9385 19.7352 13.6154L20.4773 12.6651L19.0102 11.2005L18.061 11.9396C17.7365 11.7552 17.3913 11.6092 17.022 11.5091Z" fill="#E23744" stroke="#E23744" style="fill:#E23744;fill:color(display-p3 0.8863 0.2157 0.2667);fill-opacity:1;stroke:#E23744;stroke:color(display-p3 0.8863 0.2157 0.2667);stroke-opacity:1;" stroke-width="1.3" stroke-miterlimit="10" stroke-linecap="round" stroke-linejoin="round"/>
  <path d="M5.82807 4.10185C6.78127 4.10185 7.55399 3.32912 7.55399 2.37592C7.55399 1.42272 6.78127 0.649994 5.82807 0.649994C4.87487 0.649994 4.10214 1.42272 4.10214 2.37592C4.10214 3.32912 4.87487 4.10185 5.82807 4.10185Z" fill="#E23744" stroke="#E23744" style="fill:#E23744;fill:color(display-p3 0.8863 0.2157 0.2667);fill-opacity:1;stroke:#E23744;stroke:color(display-p3 0.8863 0.2157 0.2667);stroke-opacity:1;" stroke-width="1.3" stroke-miterlimit="10" stroke-linecap="round" stroke-linejoin="round"/>
  <path d="M5.82807 14.4573C6.78127 14.4573 7.55399 13.6846 7.55399 12.7314C7.55399 11.7782 6.78127 11.0055 5.82807 11.0055C4.87487 11.0055 4.10214 11.7782 4.10214 12.7314C4.10214 13.6846 4.87487 14.4573 5.82807 14.4573Z" fill="#E23744" stroke="#E23744" style="fill:#E23744;fill:color(display-p3 0.8863 0.2157 0.2667);fill-opacity:1;stroke:#E23744;stroke:color(display-p3 0.8863 0.2157 0.2667);stroke-opacity:1;" stroke-width="1.3" stroke-miterlimit="10" stroke-linecap="round" stroke-linejoin="round"/>
  <path d="M10.6603 9.27958C11.6135 9.27958 12.3862 8.50686 12.3862 7.55365C12.3862 6.60045 11.6135 5.82773 10.6603 5.82773C9.70709 5.82773 8.93437 6.60045 8.93437 7.55365C8.93437 8.50686 9.70709 9.27958 10.6603 9.27958Z" fill="#E23744" stroke="#E23744" style="fill:#E23744;fill:color(display-p3 0.8863 0.2157 0.2667);fill-opacity:1;stroke:#E23744;stroke:color(display-p3 0.8863 0.2157 0.2667);stroke-opacity:1;" stroke-width="1.3" stroke-miterlimit="10" stroke-linecap="round" stroke-linejoin="round"/>
  <path d="M12.3862 7.55365H15.838" stroke="#E23744" style="stroke:#E23744;stroke:color(display-p3 0.8863 0.2157 0.2667);stroke-opacity:1;" stroke-width="1.3" stroke-miterlimit="10" stroke-linecap="round" stroke-linejoin="round"/>
  <path d="M0.649994 2.37592H4.1018" stroke="#E23744" style="stroke:#E23744;stroke:color(display-p3 0.8863 0.2157 0.2667);stroke-opacity:1;" stroke-width="1.3" stroke-miterlimit="10" stroke-linecap="round" stroke-linejoin="round"/>
  <path d="M0.649994 12.7314H4.1018" stroke="#E23744" style="stroke:#E23744;stroke:color(display-p3 0.8863 0.2157 0.2667);stroke-opacity:1;" stroke-width="1.3" stroke-miterlimit="10" stroke-linecap="round" stroke-linejoin="round"/>
  <path d="M15.8377 2.37607H7.55331" stroke="#E23744" style="stroke:#E23744;stroke:color(display-p3 0.8863 0.2157 0.2667);stroke-opacity:1;" stroke-width="1.3" stroke-miterlimit="10" stroke-linecap="round" stroke-linejoin="round"/>
  <path d="M11.2502 12.7315H7.55331" stroke="#E23744" style="stroke:#E23744;stroke:color(display-p3 0.8863 0.2157 0.2667);stroke-opacity:1;" stroke-width="1.3" stroke-miterlimit="10" stroke-linecap="round" stroke-linejoin="round"/>
  <path d="M0.649994 7.55365H8.93437" stroke="#E23744" style="stroke:#E23744;stroke:color(display-p3 0.8863 0.2157 0.2667);stroke-opacity:1;" stroke-width="1.3" stroke-miterlimit="10" stroke-linecap="round" stroke-linejoin="round"/>
  <path d="M15.838 17.5639C16.7912 17.5639 17.564 16.7912 17.564 15.838C17.564 14.8848 16.7912 14.1121 15.838 14.1121C14.8848 14.1121 14.1121 14.8848 14.1121 15.838C14.1121 16.7912 14.8848 17.5639 15.838 17.5639Z" fill="white" stroke="white" style="fill:white;fill-opacity:1;stroke:white;stroke-opacity:1;" stroke-width="1.3" stroke-miterlimit="10" stroke-linecap="round" stroke-linejoin="round"/>
</svg>