<svg xmlns="http://www.w3.org/2000/svg" width="20" height="20" viewBox="0 0 20 20" fill="none">
  <path d="M11.6288 3.87785C11.9033 4.08707 11.9563 4.47923 11.7472 4.75379L10.0805 6.94129C9.96485 7.09304 9.78625 7.18366 9.5955 7.18738C9.40475 7.1911 9.22275 7.10751 9.10131 6.96035L8.268 5.95076C8.04825 5.68454 8.08594 5.2906 8.35216 5.07088C8.61835 4.85116 9.01228 4.88882 9.232 5.15504L9.56375 5.55695L10.7528 3.99623C10.9621 3.72166 11.3542 3.66866 11.6288 3.87785Z" fill="#6B7280" style="fill:#6B7280;fill:color(display-p3 0.4196 0.4471 0.5020);fill-opacity:1;"/>
  <path fill-rule="evenodd" clip-rule="evenodd" d="M10 1.25C7.75634 1.25 5.9375 3.06884 5.9375 5.3125C5.9375 7.55616 7.75634 9.375 10 9.375C12.2437 9.375 14.0625 7.55616 14.0625 5.3125C14.0625 3.06884 12.2437 1.25 10 1.25ZM7.1875 5.3125C7.1875 3.75919 8.44669 2.5 10 2.5C11.5533 2.5 12.8125 3.75919 12.8125 5.3125C12.8125 6.86581 11.5533 8.125 10 8.125C8.44669 8.125 7.1875 6.86581 7.1875 5.3125Z" fill="#6B7280" style="fill:#6B7280;fill:color(display-p3 0.4196 0.4471 0.5020);fill-opacity:1;"/>
  <path d="M5.481 4.0625H4.375C2.30393 4.0625 0.625 5.74144 0.625 7.8125V8.4375C0.625 8.78269 0.904822 9.0625 1.25 9.0625C1.59518 9.0625 1.875 8.78269 1.875 8.4375V7.8125C1.875 6.43178 2.99429 5.3125 4.375 5.3125H5.3125C5.3125 4.87962 5.37119 4.46044 5.481 4.0625Z" fill="#6B7280" style="fill:#6B7280;fill:color(display-p3 0.4196 0.4471 0.5020);fill-opacity:1;"/>
  <path d="M0.625 15V11.5625C0.625 11.2173 0.904822 10.9375 1.25 10.9375C1.59518 10.9375 1.875 11.2173 1.875 11.5625V15C1.875 16.3807 2.99429 17.5 4.375 17.5H12.1875C12.5327 17.5 12.8125 17.7798 12.8125 18.125C12.8125 18.4702 12.5327 18.75 12.1875 18.75H4.375C2.30393 18.75 0.625 17.0711 0.625 15Z" fill="#6B7280" style="fill:#6B7280;fill:color(display-p3 0.4196 0.4471 0.5020);fill-opacity:1;"/>
  <path d="M14.6875 18.125C14.6875 18.4702 14.9673 18.75 15.3125 18.75H15.625C17.6961 18.75 19.375 17.0711 19.375 15V7.8125C19.375 5.74144 17.6961 4.0625 15.625 4.0625H14.519C14.6288 4.46044 14.6875 4.87962 14.6875 5.3125H15.625C17.0057 5.3125 18.125 6.43178 18.125 7.8125V15C18.125 16.3807 17.0057 17.5 15.625 17.5H15.3125C14.9673 17.5 14.6875 17.7798 14.6875 18.125Z" fill="#6B7280" style="fill:#6B7280;fill:color(display-p3 0.4196 0.4471 0.5020);fill-opacity:1;"/>
  <path d="M4.375 14.375C4.02981 14.375 3.75 14.6548 3.75 15C3.75 15.3452 4.02981 15.625 4.375 15.625H8.75C9.09519 15.625 9.375 15.3452 9.375 15C9.375 14.6548 9.09519 14.375 8.75 14.375H4.375Z" fill="#6B7280" style="fill:#6B7280;fill:color(display-p3 0.4196 0.4471 0.5020);fill-opacity:1;"/>
</svg>