<svg xmlns="http://www.w3.org/2000/svg" width="22" height="22" viewBox="0 0 22 22" fill="none">
  <g clip-path="url(#clip0_1907_9104)">
    <path d="M7.33334 21.0834H5.50001C4.89811 21.0834 4.30211 20.9648 3.74604 20.7345C3.18996 20.5041 2.6847 20.1665 2.2591 19.7409C1.8335 19.3153 1.49589 18.8101 1.26556 18.254C1.03522 17.6979 0.916672 17.1019 0.916672 16.5V5.50002C0.916672 4.28445 1.39956 3.11866 2.2591 2.25911C3.11864 1.39957 4.28443 0.916687 5.50001 0.916687H12.8333C13.4352 0.916687 14.0312 1.03524 14.5873 1.26557C15.1434 1.49591 15.6486 1.83351 16.0742 2.25911C16.4998 2.68472 16.8375 3.18998 17.0678 3.74605C17.2981 4.30213 17.4167 4.89813 17.4167 5.50002V7.33335C17.4167 7.57647 17.3201 7.80963 17.1482 7.98154C16.9763 8.15344 16.7431 8.25002 16.5 8.25002C16.2569 8.25002 16.0237 8.15344 15.8518 7.98154C15.6799 7.80963 15.5833 7.57647 15.5833 7.33335V5.50002C15.5833 4.77068 15.2936 4.0712 14.7779 3.55548C14.2622 3.03975 13.5627 2.75002 12.8333 2.75002H5.50001C4.77066 2.75002 4.07119 3.03975 3.55546 3.55548C3.03974 4.0712 2.75001 4.77068 2.75001 5.50002V16.5C2.75001 17.2294 3.03974 17.9288 3.55546 18.4446C4.07119 18.9603 4.77066 19.25 5.50001 19.25H7.33334C7.57645 19.25 7.80961 19.3466 7.98152 19.5185C8.15343 19.6904 8.25001 19.9236 8.25001 20.1667C8.25001 20.4098 8.15343 20.643 7.98152 20.8149C7.80961 20.9868 7.57645 21.0834 7.33334 21.0834Z" fill="#6B7280" style="fill:#6B7280;fill:color(display-p3 0.4196 0.4471 0.5020);fill-opacity:1;"/>
    <path d="M11 11.9167H5.50001C5.2569 11.9167 5.02374 11.8201 4.85183 11.6482C4.67992 11.4763 4.58334 11.2432 4.58334 11C4.58334 10.7569 4.67992 10.5238 4.85183 10.3519C5.02374 10.18 5.2569 10.0834 5.50001 10.0834H11C11.2431 10.0834 11.4763 10.18 11.6482 10.3519C11.8201 10.5238 11.9167 10.7569 11.9167 11C11.9167 11.2432 11.8201 11.4763 11.6482 11.6482C11.4763 11.8201 11.2431 11.9167 11 11.9167Z" fill="#6B7280" style="fill:#6B7280;fill:color(display-p3 0.4196 0.4471 0.5020);fill-opacity:1;"/>
    <path d="M7.33334 15.5833H5.50001C5.2569 15.5833 5.02374 15.4868 4.85183 15.3148C4.67992 15.1429 4.58334 14.9098 4.58334 14.6667C4.58334 14.4236 4.67992 14.1904 4.85183 14.0185C5.02374 13.8466 5.2569 13.75 5.50001 13.75H7.33334C7.57646 13.75 7.80962 13.8466 7.98152 14.0185C8.15343 14.1904 8.25001 14.4236 8.25001 14.6667C8.25001 14.9098 8.15343 15.1429 7.98152 15.3148C7.80962 15.4868 7.57646 15.5833 7.33334 15.5833Z" fill="#6B7280" style="fill:#6B7280;fill:color(display-p3 0.4196 0.4471 0.5020);fill-opacity:1;"/>
    <path d="M12.8333 8.25002H5.50001C5.2569 8.25002 5.02374 8.15344 4.85183 7.98153C4.67992 7.80963 4.58334 7.57647 4.58334 7.33335C4.58334 7.09024 4.67992 6.85708 4.85183 6.68517C5.02374 6.51326 5.2569 6.41669 5.50001 6.41669H12.8333C13.0765 6.41669 13.3096 6.51326 13.4815 6.68517C13.6534 6.85708 13.75 7.09024 13.75 7.33335C13.75 7.57647 13.6534 7.80963 13.4815 7.98153C13.3096 8.15344 13.0765 8.25002 12.8333 8.25002Z" fill="#6B7280" style="fill:#6B7280;fill:color(display-p3 0.4196 0.4471 0.5020);fill-opacity:1;"/>
    <path d="M11 21.0833C10.8689 21.0844 10.7391 21.0574 10.6193 21.0041C10.4996 20.9508 10.3926 20.8724 10.3058 20.7742C10.2189 20.676 10.1541 20.5603 10.1157 20.435C10.0773 20.3096 10.0663 20.1775 10.0833 20.0475L10.3858 17.7008C10.4573 17.0962 10.732 16.5338 11.165 16.1058L16.3808 10.89C16.9054 10.3922 17.601 10.1147 18.3242 10.1147C19.0473 10.1147 19.7429 10.3922 20.2675 10.89C20.7825 11.4056 21.0718 12.1046 21.0718 12.8333C21.0718 13.5621 20.7825 14.261 20.2675 14.7767L15.0517 19.9925C14.6237 20.4255 14.0613 20.7002 13.4567 20.7717L11.1192 21.0833H11ZM18.3333 11.9167C18.2127 11.916 18.0931 11.9391 17.9814 11.9847C17.8697 12.0303 17.7682 12.0975 17.6825 12.1825L12.4758 17.4167C12.3306 17.5594 12.2371 17.7465 12.21 17.9483L12.0633 19.1217L13.2367 18.975C13.4319 18.938 13.611 18.842 13.75 18.7L18.9658 13.4842C19.0518 13.3989 19.12 13.2976 19.1665 13.1859C19.213 13.0741 19.237 12.9543 19.237 12.8333C19.237 12.7123 19.213 12.5925 19.1665 12.4808C19.12 12.3691 19.0518 12.2677 18.9658 12.1825C18.7974 12.0153 18.5706 11.9201 18.3333 11.9167Z" fill="#6B7280" style="fill:#6B7280;fill:color(display-p3 0.4196 0.4471 0.5020);fill-opacity:1;"/>
  </g>
  <defs>
    <clipPath id="clip0_1907_9104">
      <rect width="22" height="22" fill="white" style="fill:white;fill-opacity:1;"/>
    </clipPath>
  </defs>
</svg>