<svg xmlns="http://www.w3.org/2000/svg" width="22" height="22" viewBox="0 0 22 22" fill="none">
  <path d="M8.25001 19.8184L8.55251 17.4625C8.68297 16.4557 9.14403 15.5207 9.86334 14.8042L15.07 9.58835C15.7155 8.96023 16.5317 8.53619 17.4167 8.36919V5.50002C17.4167 4.28444 16.9338 3.11866 16.0742 2.25911C15.2147 1.39957 14.0489 0.916687 12.8333 0.916687H5.50001C4.28443 0.916687 3.11864 1.39957 2.2591 2.25911C1.39956 3.11866 0.916672 4.28444 0.916672 5.50002V16.5C0.916672 17.1019 1.03522 17.6979 1.26556 18.254C1.49589 18.8101 1.8335 19.3153 2.2591 19.7409C3.11864 20.6005 4.28443 21.0834 5.50001 21.0834H8.41501C8.25956 20.681 8.20297 20.2471 8.25001 19.8184ZM4.58334 6.41669H11.9167C12.1598 6.41669 12.3929 6.51326 12.5649 6.68517C12.7368 6.85708 12.8333 7.09024 12.8333 7.33335C12.8333 7.57647 12.7368 7.80963 12.5649 7.98153C12.3929 8.15344 12.1598 8.25002 11.9167 8.25002H4.58334C4.34022 8.25002 4.10707 8.15344 3.93516 7.98153C3.76325 7.80963 3.66667 7.57647 3.66667 7.33335C3.66667 7.09024 3.76325 6.85708 3.93516 6.68517C4.10707 6.51326 4.34022 6.41669 4.58334 6.41669ZM4.58334 10.0834H10.0833C10.3265 10.0834 10.5596 10.1799 10.7315 10.3518C10.9034 10.5237 11 10.7569 11 11C11 11.2431 10.9034 11.4763 10.7315 11.6482C10.5596 11.8201 10.3265 11.9167 10.0833 11.9167H4.58334C4.34022 11.9167 4.10707 11.8201 3.93516 11.6482C3.76325 11.4763 3.66667 11.2431 3.66667 11C3.66667 10.7569 3.76325 10.5237 3.93516 10.3518C4.10707 10.1799 4.34022 10.0834 4.58334 10.0834ZM6.41667 15.5834H4.58334C4.34022 15.5834 4.10707 15.4868 3.93516 15.3149C3.76325 15.143 3.66667 14.9098 3.66667 14.6667C3.66667 14.4236 3.76325 14.1904 3.93516 14.0185C4.10707 13.8466 4.34022 13.75 4.58334 13.75H6.41667C6.65979 13.75 6.89294 13.8466 7.06485 14.0185C7.23676 14.1904 7.33334 14.4236 7.33334 14.6667C7.33334 14.9098 7.23676 15.143 7.06485 15.3149C6.89294 15.4868 6.65979 15.5834 6.41667 15.5834ZM20.2767 14.7767L15.0608 19.9925C14.6328 20.4255 14.0704 20.7002 13.4658 20.7717L11.1192 21.0834H11C10.8689 21.0845 10.7391 21.0574 10.6193 21.0041C10.4996 20.9508 10.3926 20.8724 10.3058 20.7742C10.2189 20.676 10.1541 20.5604 10.1157 20.435C10.0773 20.3096 10.0663 20.1775 10.0833 20.0475L10.3858 17.7009C10.4573 17.0962 10.732 16.5338 11.165 16.1059L16.3808 10.89C16.9054 10.3923 17.601 10.1148 18.3242 10.1148C19.0473 10.1148 19.7429 10.3923 20.2675 10.89C20.7837 11.4044 21.0746 12.1027 21.0763 12.8315C21.0781 13.5602 20.7904 14.2598 20.2767 14.7767Z" fill="#E23744" style="fill:#E23744;fill:color(display-p3 0.8863 0.2157 0.2667);fill-opacity:1;"/>
</svg>