<svg xmlns="http://www.w3.org/2000/svg" width="22" height="22" viewBox="0 0 22 22" fill="none">
  <g clip-path="url(#clip0_1907_9115)">
    <path d="M18.4456 12.9525C18.2566 12.9525 18.1019 12.7978 18.1019 12.6087V11.33H3.68156V12.6087C3.68156 12.7978 3.52688 12.9525 3.33781 12.9525C3.14875 12.9525 2.99406 12.7978 2.99406 12.6087V10.9862C2.99406 10.7971 3.14875 10.6425 3.33781 10.6425H18.4491C18.6381 10.6425 18.7928 10.7971 18.7928 10.9862V12.6087C18.7894 12.7978 18.6381 12.9525 18.4456 12.9525Z" fill="#6B7280" style="fill:#6B7280;fill:color(display-p3 0.4196 0.4471 0.5020);fill-opacity:1;"/>
    <path d="M16.2181 21.5084H5.72C5.53094 21.5084 5.37625 21.3537 5.37625 21.1647C5.37625 20.9756 5.53094 20.8209 5.72 20.8209H16.2181C16.4072 20.8209 16.5619 20.9756 16.5619 21.1647C16.5619 21.3537 16.4106 21.5084 16.2181 21.5084Z" fill="#6B7280" style="fill:#6B7280;fill:color(display-p3 0.4196 0.4471 0.5020);fill-opacity:1;"/>
    <path d="M17.7409 9.93781H3.65751C3.03876 9.93781 2.53345 9.4325 2.53345 8.81375V4.38968C2.53345 4.08031 2.66407 3.78125 2.89095 3.56812C3.11782 3.35843 3.42376 3.24843 3.7297 3.26906L8.37032 3.56468C8.55939 3.57843 8.70376 3.74 8.69001 3.92906C8.67626 4.11812 8.51126 4.2625 8.32563 4.24875L3.68157 3.95312C3.55782 3.94281 3.44438 3.9875 3.35501 4.07C3.26563 4.1525 3.21751 4.26593 3.21751 4.38968V8.81375C3.21751 9.05437 3.41345 9.25031 3.65407 9.25031H17.7375C18.3563 9.25031 18.8616 8.745 18.8616 8.12281V5.98125C18.8616 5.39 18.3975 4.895 17.8097 4.85718L14.8913 4.67156C14.7022 4.65781 14.5578 4.49625 14.5716 4.30718C14.5853 4.11812 14.7503 3.97031 14.9359 3.9875L17.8544 4.17312C18.8066 4.23843 19.5491 5.0325 19.5491 5.98468V8.12281C19.5525 9.12312 18.7378 9.93781 17.7409 9.93781Z" fill="#6B7280" style="fill:#6B7280;fill:color(display-p3 0.4196 0.4471 0.5020);fill-opacity:1;"/>
    <path d="M5.87126 11.3265C5.6822 11.3265 5.52751 11.1718 5.52751 10.9828V9.59058C5.52751 9.40151 5.6822 9.24683 5.87126 9.24683C6.06032 9.24683 6.21501 9.40151 6.21501 9.59058V10.9828C6.21501 11.1753 6.06032 11.3265 5.87126 11.3265Z" fill="#6B7280" style="fill:#6B7280;fill:color(display-p3 0.4196 0.4471 0.5020);fill-opacity:1;"/>
    <path d="M15.5856 11.3265C15.3966 11.3265 15.2419 11.1718 15.2419 10.9828V9.59058C15.2419 9.40151 15.3966 9.24683 15.5856 9.24683C15.7747 9.24683 15.9294 9.40151 15.9294 9.59058V10.9828C15.9294 11.1753 15.7781 11.3265 15.5856 11.3265Z" fill="#6B7280" style="fill:#6B7280;fill:color(display-p3 0.4196 0.4471 0.5020);fill-opacity:1;"/>
    <path d="M13.09 21.5084H8.99594C8.80688 21.5084 8.65219 21.3537 8.65219 21.1647V15.7712C8.65219 15.5822 8.80688 15.4275 8.99594 15.4275H13.09C13.2791 15.4275 13.4338 15.5822 13.4338 15.7712V21.1647C13.4338 21.3537 13.2791 21.5084 13.09 21.5084ZM9.33969 20.8209H12.7463V16.115H9.33969V20.8209Z" fill="#6B7280" style="fill:#6B7280;fill:color(display-p3 0.4196 0.4471 0.5020);fill-opacity:1;"/>
    <path d="M11.0413 21.5084C10.8522 21.5084 10.6975 21.3537 10.6975 21.1647V15.7712C10.6975 15.5822 10.8522 15.4275 11.0413 15.4275C11.2303 15.4275 11.385 15.5822 11.385 15.7712V21.1647C11.385 21.3537 11.2338 21.5084 11.0413 21.5084Z" fill="#6B7280" style="fill:#6B7280;fill:color(display-p3 0.4196 0.4471 0.5020);fill-opacity:1;"/>
    <path d="M5.72001 21.5084H1.78751C1.59844 21.5084 1.44376 21.3537 1.44376 21.1647V12.6122C1.44376 12.4231 1.59844 12.2684 1.78751 12.2684H5.72344C5.91251 12.2684 6.06719 12.4231 6.06719 12.6122V21.1681C6.06376 21.3537 5.90907 21.5084 5.72001 21.5084ZM2.13126 20.8209H5.37969V12.9559H2.13126V20.8209Z" fill="#6B7280" style="fill:#6B7280;fill:color(display-p3 0.4196 0.4471 0.5020);fill-opacity:1;"/>
    <path d="M20.1541 21.5084H16.2181C16.0291 21.5084 15.8744 21.3537 15.8744 21.1647V12.6122C15.8744 12.4231 16.0291 12.2684 16.2181 12.2684H20.1541C20.3431 12.2684 20.4978 12.4231 20.4978 12.6122V21.1681C20.4978 21.3537 20.3431 21.5084 20.1541 21.5084ZM16.5619 20.8209H19.8103V12.9559H16.5619V20.8209Z" fill="#6B7280" style="fill:#6B7280;fill:color(display-p3 0.4196 0.4471 0.5020);fill-opacity:1;"/>
    <path d="M13.09 14.9531H8.99594C8.80688 14.9531 8.65219 14.7984 8.65219 14.6094C8.65219 14.4203 8.80688 14.2656 8.99594 14.2656H13.09C13.2791 14.2656 13.4338 14.4203 13.4338 14.6094C13.4338 14.7984 13.2791 14.9531 13.09 14.9531Z" fill="#6B7280" style="fill:#6B7280;fill:color(display-p3 0.4196 0.4471 0.5020);fill-opacity:1;"/>
    <path d="M17.4316 8.7381H4.2625C3.93594 8.7381 3.67125 8.47341 3.67125 8.15029V5.18029C3.67125 5.01873 3.74 4.86404 3.85687 4.7506C3.97375 4.6406 4.13531 4.58216 4.30031 4.59248L8.53187 4.81935C8.72094 4.82966 8.86531 4.99123 8.85844 5.18029C8.85156 5.36935 8.68656 5.51716 8.4975 5.50685L4.36219 5.28685V8.05404H17.435C17.6619 8.05404 17.8441 7.87185 17.8441 7.64841V6.39373C17.8441 6.17716 17.6756 5.99841 17.4625 5.98466L14.6059 5.83341C14.4169 5.8231 14.2725 5.66154 14.2794 5.47248C14.2862 5.28341 14.4547 5.13904 14.6403 5.14591L17.4969 5.29716C18.0744 5.33154 18.5247 5.81279 18.5247 6.39373V7.64154C18.5281 8.24654 18.0366 8.7381 17.4316 8.7381ZM4.25906 5.27654C4.2625 5.27654 4.2625 5.27654 4.25906 5.27654V5.27654Z" fill="#6B7280" style="fill:#6B7280;fill:color(display-p3 0.4196 0.4471 0.5020);fill-opacity:1;"/>
    <path d="M11.6325 7.75497C9.62844 7.75497 7.99907 6.1256 7.99907 4.12154C7.99907 2.11747 9.62844 0.488098 11.6325 0.488098C13.6331 0.491536 15.2625 2.12091 15.2625 4.12497C15.2625 6.1256 13.6331 7.75497 11.6325 7.75497ZM11.6325 1.17904C10.01 1.17904 8.68657 2.49904 8.68657 4.12497C8.68657 5.75091 10.0066 7.07091 11.6325 7.07091C13.2584 7.07091 14.575 5.74747 14.575 4.12497C14.575 2.50247 13.255 1.17904 11.6325 1.17904Z" fill="#6B7280" style="fill:#6B7280;fill:color(display-p3 0.4196 0.4471 0.5020);fill-opacity:1;"/>
    <path d="M12.7394 2.78089C12.6363 2.78089 12.5331 2.73276 12.4644 2.64339L12.4094 2.56776C12.2959 2.41651 12.3269 2.19995 12.4781 2.08651C12.6294 1.97307 12.8459 2.00401 12.9594 2.15526L13.0178 2.23089C13.1313 2.38214 13.1003 2.5987 12.9491 2.71214C12.8838 2.76026 12.8116 2.78089 12.7394 2.78089Z" fill="#6B7280" style="fill:#6B7280;fill:color(display-p3 0.4196 0.4471 0.5020);fill-opacity:1;"/>
    <path d="M13.7019 3.48901C13.5988 3.48901 13.4956 3.44089 13.4269 3.35152L13.3684 3.27589C13.255 3.12464 13.2859 2.90808 13.4372 2.79464C13.5884 2.6812 13.805 2.71214 13.9184 2.86339L13.9769 2.93902C14.0903 3.09027 14.0594 3.30683 13.9081 3.42027C13.8463 3.46495 13.7741 3.48901 13.7019 3.48901Z" fill="#6B7280" style="fill:#6B7280;fill:color(display-p3 0.4196 0.4471 0.5020);fill-opacity:1;"/>
    <path d="M12.6259 3.88434C12.5228 3.88434 12.4197 3.83621 12.3509 3.74684L12.2925 3.67122C12.1791 3.51997 12.21 3.3034 12.3613 3.18996C12.5125 3.07653 12.7291 3.10746 12.8425 3.25871L12.9009 3.33434C13.0144 3.48559 12.9834 3.70215 12.8322 3.81559C12.7703 3.86028 12.6981 3.88434 12.6259 3.88434Z" fill="#6B7280" style="fill:#6B7280;fill:color(display-p3 0.4196 0.4471 0.5020);fill-opacity:1;"/>
    <path d="M21.2438 21.5084H0.756256C0.567194 21.5084 0.412506 21.3537 0.412506 21.1647C0.412506 20.9756 0.567194 20.8209 0.756256 20.8209H21.2438C21.4328 20.8209 21.5875 20.9756 21.5875 21.1647C21.5875 21.3537 21.4363 21.5084 21.2438 21.5084Z" fill="#6B7280" style="fill:#6B7280;fill:color(display-p3 0.4196 0.4471 0.5020);fill-opacity:1;"/>
  </g>
  <defs>
    <clipPath id="clip0_1907_9115">
      <rect width="22" height="22" fill="white" style="fill:white;fill-opacity:1;"/>
    </clipPath>
  </defs>
</svg>