<svg xmlns="http://www.w3.org/2000/svg" width="20" height="20" viewBox="0 0 20 20" fill="none">
  <path d="M1.45801 0.5H7.70801C8.2361 0.5 8.66684 0.930171 8.66699 1.45801V5.20801C8.66699 5.73616 8.23616 6.16699 7.70801 6.16699H1.45801C0.930171 6.16684 0.5 5.7361 0.5 5.20801V1.45801C0.500149 0.930229 0.930229 0.500149 1.45801 0.5Z" stroke="#6B7280" style="stroke:#6B7280;stroke:color(display-p3 0.4196 0.4471 0.5020);stroke-opacity:1;"/>
  <path d="M1.45801 8.83325H7.70801C8.23601 8.83325 8.66676 9.26331 8.66699 9.79126V18.5413C8.66699 19.0692 8.23619 19.5002 7.70801 19.5002H1.45801C0.930137 19.5001 0.5 19.0692 0.5 18.5413V9.79126C0.500232 9.26336 0.930314 8.8334 1.45801 8.83325Z" stroke="#6B7280" style="stroke:#6B7280;stroke:color(display-p3 0.4196 0.4471 0.5020);stroke-opacity:1;"/>
  <path d="M12.2913 13.8333H18.5413C19.0691 13.8333 19.5 14.2633 19.5003 14.7913V18.5413C19.5003 19.0693 19.0693 19.5002 18.5413 19.5002H12.2913C11.7633 19.5 11.3333 19.0691 11.3333 18.5413V14.7913C11.3335 14.2634 11.7635 13.8335 12.2913 13.8333Z" stroke="#6B7280" style="stroke:#6B7280;stroke:color(display-p3 0.4196 0.4471 0.5020);stroke-opacity:1;"/>
  <path d="M12.2913 0.5H18.5413C19.0692 0.5 19.5001 0.930137 19.5003 1.45801V10.208C19.5003 10.7362 19.0693 11.167 18.5413 11.167H12.2913C11.7633 11.1668 11.3333 10.736 11.3333 10.208V1.45801C11.3334 0.930314 11.7634 0.500232 12.2913 0.5Z" stroke="#6B7280" style="stroke:#6B7280;stroke:color(display-p3 0.4196 0.4471 0.5020);stroke-opacity:1;"/>
</svg>