<svg xmlns="http://www.w3.org/2000/svg" width="26" height="26" viewBox="0 0 26 26" fill="none">
  <g opacity="0.3" clip-path="url(#clip0_2429_27779)">
    <path d="M9.51622 17.54C9.72504 17.7726 10.1052 17.7143 10.2334 17.4292C10.5912 16.6324 10.7222 15.8717 10.71 15.0861C10.7067 14.8971 10.8281 14.727 11.0079 14.6696C13.9433 13.7319 16.8938 14.6284 19.0762 16.5996C19.2474 16.7539 19.509 16.748 19.6726 16.5855C19.8519 16.4056 19.8395 16.1207 19.6586 15.956C18.8254 15.1988 17.8277 14.5574 16.7719 14.116C16.4924 13.999 16.4139 13.6387 16.6219 13.4194C18.9587 10.9542 22.4471 10.7315 25.1864 12.5884C25.6956 12.9335 26 13.5082 26 14.1262V21.8701C26 22.59 25.5791 23.2514 24.9275 23.5548C17.2914 27.1125 8.86393 26.7187 1.75652 22.6523C0.490615 21.9275 -0.195695 20.471 0.049145 19.0274C0.553613 16.0467 1.44695 13.1605 2.7016 10.4336C2.84433 10.1234 3.27161 10.0928 3.45881 10.3784C4.74975 12.3479 6.93993 13.6055 9.33817 13.6652C9.55435 13.6705 9.73392 13.8342 9.75819 14.0491C9.88965 15.2122 9.92123 16.024 9.44428 17.072C9.37316 17.2283 9.40149 17.4122 9.51622 17.54Z" fill="#6B7280" style="fill:#6B7280;fill:color(display-p3 0.4196 0.4471 0.5020);fill-opacity:1;"/>
    <path d="M9.53291 0.0166016C6.00819 0.0166016 3.14107 2.88372 3.14107 6.40844C3.14107 9.93316 6.00819 12.8003 9.53291 12.8003C13.0576 12.8003 15.9247 9.93316 15.9247 6.40844C15.9247 2.88372 13.0576 0.0166016 9.53291 0.0166016ZM9.53291 9.17102C8.0097 9.17102 6.77033 7.93165 6.77033 6.40844C6.77033 4.88523 8.0097 3.64587 9.53291 3.64587C11.0561 3.64587 12.2955 4.88523 12.2955 6.40844C12.2955 7.93165 11.0561 9.17102 9.53291 9.17102Z" fill="#6B7280" style="fill:#6B7280;fill:color(display-p3 0.4196 0.4471 0.5020);fill-opacity:1;"/>
    <path d="M9.53291 8.30422C10.58 8.30422 11.4288 7.4554 11.4288 6.40834C11.4288 5.36127 10.58 4.51245 9.53291 4.51245C8.48584 4.51245 7.63702 5.36127 7.63702 6.40834C7.63702 7.4554 8.48584 8.30422 9.53291 8.30422Z" fill="#6B7280" style="fill:#6B7280;fill:color(display-p3 0.4196 0.4471 0.5020);fill-opacity:1;"/>
  </g>
  <defs>
    <clipPath id="clip0_2429_27779">
      <rect width="26" height="26" fill="white" style="fill:white;fill-opacity:1;"/>
    </clipPath>
  </defs>
</svg>