<svg xmlns="http://www.w3.org/2000/svg" width="22" height="22" viewBox="0 0 22 22" fill="none">
  <mask id="mask0_1907_9167" style="mask-type:luminance" maskUnits="userSpaceOnUse" x="0" y="0" width="22" height="22">
    <path d="M0 1.90735e-06H22V22H0V1.90735e-06Z" fill="white" style="fill:white;fill-opacity:1;"/>
  </mask>
  <g mask="url(#mask0_1907_9167)">
    <path d="M15.125 11C15.125 10.5254 15.5097 10.1406 15.9844 10.1406C16.459 10.1406 16.8438 10.5254 16.8438 11C16.8438 11.4746 16.459 11.8594 15.9844 11.8594C15.5097 11.8594 15.125 11.4746 15.125 11Z" fill="#6B7280" style="fill:#6B7280;fill:color(display-p3 0.4196 0.4471 0.5020);fill-opacity:1;"/>
    <path d="M18.962 17.875C18.3676 18.9025 17.2567 19.5938 15.9844 19.5938H4.29689C2.3984 19.5938 0.85939 18.0547 0.85939 16.1563V5.84375C0.85939 3.94526 2.3984 2.40625 4.29689 2.40625H15.9844C17.2567 2.40625 18.3676 3.09753 18.962 4.125" stroke="#6B7280" style="stroke:#6B7280;stroke:color(display-p3 0.4196 0.4471 0.5020);stroke-opacity:1;" stroke-width="1.5" stroke-miterlimit="10" stroke-linecap="round" stroke-linejoin="round"/>
    <path d="M12.5469 11C12.5469 12.8985 14.0859 14.4375 15.9844 14.4375H19.4219C20.3711 14.4375 21.1406 13.668 21.1406 12.7188V9.28125C21.1406 8.33203 20.3711 7.5625 19.4219 7.5625H15.9844C14.0859 7.5625 12.5469 9.10151 12.5469 11Z" stroke="#6B7280" style="stroke:#6B7280;stroke:color(display-p3 0.4196 0.4471 0.5020);stroke-opacity:1;" stroke-width="1.5" stroke-miterlimit="10" stroke-linecap="round" stroke-linejoin="round"/>
  </g>
</svg>