<svg xmlns="http://www.w3.org/2000/svg" width="35" height="36" viewBox="0 0 35 36" fill="none">
  <path d="M30.7302 19.7444C30.6986 19.6399 30.691 19.5354 30.7073 19.4309C30.7389 19.1815 30.8947 18.9804 31.0429 18.7872C33.3451 15.7371 34.4696 11.7613 34.1187 7.90562C33.9706 6.30472 33.5489 4.67012 32.5813 3.39839C31.1529 1.53911 28.7646 0.742592 26.4776 0.485325C24.1906 0.228058 21.8568 0.405563 19.5851 0.00224907V5.00041C21.3414 4.95997 23.1283 4.91953 24.8226 5.41047C26.5168 5.89355 28.1327 6.99564 28.8344 8.65383C29.67 10.6097 28.2416 15.6079 27.0235 17.338C24.0414 14.9069 20.7323 14.0295 16.9232 14.0295C13.1294 14.0373 9.92172 15.0439 6.94721 17.4739C5.75305 15.7517 4.52729 10.6491 5.33138 8.70102C6.02652 7.0271 7.64998 5.90815 9.34316 5.4172C11.0451 4.9184 12.8406 4.95772 14.6046 4.99817C14.6123 3.33211 14.6123 1.66606 14.6123 0C14.1045 0.0404437 13.5979 0.0718999 13.0825 0.112344C12.5748 0.144923 12.0681 0.185366 11.5604 0.216822C11.0527 0.257266 10.546 0.288722 10.0383 0.329166C9.52293 0.361746 9.01628 0.402188 8.50854 0.433645C8.08688 0.466224 7.66523 0.513413 7.24357 0.578572C6.83716 0.634744 6.43184 0.707768 6.03415 0.804384C5.63646 0.893135 5.23767 1.00548 4.85523 1.14254C4.47279 1.27173 4.09799 1.43238 3.73952 1.61775C3.38868 1.80312 3.0444 2.01994 2.72516 2.26934C2.51487 2.42999 2.31112 2.61536 2.12371 2.80072C0.554743 4.40162 0.00887299 6.80016 0.000156481 9.07062C-0.0150974 12.5229 1.08535 15.9764 3.09123 18.7445C3.27101 18.9939 3.47367 19.2681 3.47367 19.5815C3.47367 19.8388 3.34838 20.0646 3.23179 20.2893C0.835842 24.7639 0.96767 30.1811 1.39696 35.2759C1.41221 35.4287 1.42857 35.5972 1.54515 35.7028C1.65411 35.8073 1.82626 35.8151 1.98207 35.8073C3.43445 35.759 4.89338 35.7185 6.34577 35.6702C6.50921 35.6624 6.6966 35.6545 6.8219 35.541C7.0093 35.3804 7.00167 35.0905 6.9777 34.849C6.58001 30.6069 5.96333 24.4505 7.81341 20.6431C14.4946 23.2832 18.1403 23.6854 26.2042 20.4656C28.3353 24.0876 27.5781 30.5507 27.2185 34.7681C27.1956 35.0501 27.1957 35.3961 27.4212 35.5646C27.5541 35.6612 27.7252 35.6691 27.8897 35.677C29.3258 35.7174 30.7542 35.7567 32.1902 35.805C32.3536 35.805 32.5334 35.805 32.6587 35.6927C32.7601 35.5803 32.784 35.4197 32.7993 35.2658C33.2285 30.1631 33.3451 24.747 30.9568 20.2634C30.8707 20.0949 30.777 19.9174 30.7302 19.7399V19.7444ZM17.0856 21.1936C12.6205 21.1936 9.00648 19.914 9.00648 18.3199C9.00648 16.7257 12.6205 15.4472 17.0856 15.4472C21.5506 15.4472 25.1723 16.7347 25.1723 18.3199C25.1723 19.905 21.5506 21.1936 17.0856 21.1936Z" fill="#E23744" style="fill:#E23744;fill:color(display-p3 0.8863 0.2157 0.2667);fill-opacity:1;"/>
</svg>