<svg xmlns="http://www.w3.org/2000/svg" width="22" height="22" viewBox="0 0 22 22" fill="none">
  <g clip-path="url(#clip0_1907_9182)">
    <path d="M17.875 0.6875H4.125C3.21358 0.688337 2.33972 1.05077 1.69525 1.69525C1.05077 2.33972 0.688337 3.21358 0.6875 4.125V13.75C0.688337 14.6614 1.05077 15.5353 1.69525 16.1798C2.33972 16.8242 3.21358 17.1867 4.125 17.1875H9.31755C9.80128 18.5631 10.7564 19.7231 12.0137 20.4617C13.2709 21.2004 14.7491 21.4701 16.1862 21.223C17.6233 20.9758 18.9265 20.2279 19.8649 19.1117C20.8032 17.9955 21.316 16.5832 21.3125 15.125C21.3027 14.8776 21.2778 14.631 21.2378 14.3866C21.283 14.1773 21.308 13.9641 21.3125 13.75V4.125C21.3117 3.21358 20.9492 2.33972 20.3048 1.69525C19.6603 1.05077 18.7864 0.688337 17.875 0.6875ZM4.125 2.0625H17.875C18.4218 2.06312 18.9461 2.28062 19.3327 2.66728C19.7194 3.05394 19.9369 3.57818 19.9375 4.125V4.8125H2.0625V4.125C2.06312 3.57818 2.28062 3.05394 2.66728 2.66728C3.05394 2.28062 3.57818 2.06312 4.125 2.0625ZM15.125 19.9375C14.1732 19.9375 13.2427 19.6553 12.4513 19.1264C11.6599 18.5976 11.0431 17.846 10.6788 16.9667C10.3146 16.0873 10.2193 15.1197 10.405 14.1861C10.5907 13.2526 11.049 12.3951 11.722 11.722C12.3951 11.049 13.2526 10.5907 14.1861 10.405C15.1197 10.2193 16.0873 10.3146 16.9667 10.6788C17.846 11.0431 18.5976 11.6599 19.1264 12.4513C19.6553 13.2427 19.9375 14.1732 19.9375 15.125C19.936 16.4009 19.4285 17.6241 18.5263 18.5263C17.6241 19.4285 16.4009 19.936 15.125 19.9375ZM15.125 8.9375C13.4845 8.93932 11.9118 9.5918 10.7518 10.7518C9.5918 11.9118 8.93932 13.4845 8.9375 15.125C8.94756 15.3553 8.97075 15.5848 9.00694 15.8125H4.125C3.57818 15.8119 3.05394 15.5944 2.66728 15.2077C2.28062 14.8211 2.06312 14.2968 2.0625 13.75V6.1875H19.9375V11.2839C19.3639 10.5555 18.6332 9.96617 17.7998 9.55986C16.9665 9.15354 16.0521 8.94079 15.125 8.9375Z" fill="#6B7280" style="fill:#6B7280;fill:color(display-p3 0.4196 0.4471 0.5020);fill-opacity:1;"/>
    <path d="M15.6119 11.8898C15.4826 11.7609 15.3075 11.6886 15.125 11.6886C14.9425 11.6886 14.7674 11.7609 14.6381 11.8898L13.2639 13.2639C13.1387 13.3936 13.0694 13.5673 13.071 13.7475C13.0725 13.9278 13.1448 14.1002 13.2723 14.2277C13.3998 14.3552 13.5722 14.4275 13.7525 14.429C13.9327 14.4306 14.1064 14.3613 14.2361 14.2361L14.4375 14.0346V17.875C14.4375 18.0573 14.5099 18.2322 14.6389 18.3611C14.7678 18.4901 14.9427 18.5625 15.125 18.5625C15.3073 18.5625 15.4822 18.4901 15.6111 18.3611C15.7401 18.2322 15.8125 18.0573 15.8125 17.875V14.0346L16.0139 14.2361C16.1436 14.3613 16.3173 14.4306 16.4975 14.429C16.6778 14.4275 16.8502 14.3552 16.9777 14.2277C17.1052 14.1002 17.1775 13.9278 17.179 13.7475C17.1806 13.5673 17.1113 13.3936 16.9861 13.2639L15.6119 11.8898Z" fill="#6B7280" style="fill:#6B7280;fill:color(display-p3 0.4196 0.4471 0.5020);fill-opacity:1;"/>
    <path d="M6.875 8.9375H4.125C3.94266 8.9375 3.7678 9.00993 3.63886 9.13886C3.50993 9.2678 3.4375 9.44266 3.4375 9.625C3.4375 9.80734 3.50993 9.9822 3.63886 10.1111C3.7678 10.2401 3.94266 10.3125 4.125 10.3125H6.875C7.05734 10.3125 7.2322 10.2401 7.36114 10.1111C7.49007 9.9822 7.5625 9.80734 7.5625 9.625C7.5625 9.44266 7.49007 9.2678 7.36114 9.13886C7.2322 9.00993 7.05734 8.9375 6.875 8.9375Z" fill="#6B7280" style="fill:#6B7280;fill:color(display-p3 0.4196 0.4471 0.5020);fill-opacity:1;"/>
  </g>
  <defs>
    <clipPath id="clip0_1907_9182">
      <rect width="22" height="22" fill="white" style="fill:white;fill-opacity:1;"/>
    </clipPath>
  </defs>
</svg>