<svg xmlns="http://www.w3.org/2000/svg" width="20" height="20" viewBox="0 0 20 20" fill="none">
  <path d="M9.99908 10.1167H9.97742C7.86912 10.11 6.16078 8.38999 6.16578 6.28247C6.16578 4.16997 7.88578 2.45081 9.99908 2.45081C12.1132 2.45081 13.8332 4.16997 13.8332 6.28414C13.8332 8.39749 12.1132 10.1167 9.99908 10.1167Z" fill="#E23744" style="fill:#E23744;fill:color(display-p3 0.8863 0.2157 0.2667);fill-opacity:1;"/>
  <path fill-rule="evenodd" clip-rule="evenodd" d="M4.36929 14.8809C4.36929 17.5492 8.60683 17.5492 9.99933 17.5492C11.3918 17.5492 15.6293 17.5492 15.6293 14.8667C15.6293 12.8442 13.1043 11.1976 9.99933 11.1976C6.89429 11.1976 4.36929 12.8492 4.36929 14.8809Z" fill="#E23744" style="fill:#E23744;fill:color(display-p3 0.8863 0.2157 0.2667);fill-opacity:1;"/>
  <path d="M15.3248 9.23551C15.0481 9.23551 14.7956 9.05134 14.7206 8.77218C14.6314 8.43884 14.8298 8.09631 15.1631 8.00631C15.9439 7.79714 16.4898 7.08548 16.4898 6.27548C16.4898 5.42798 15.8898 4.68964 15.0614 4.52131C14.7231 4.45214 14.5056 4.12131 14.5739 3.78298C14.6439 3.44548 14.9723 3.23214 15.3114 3.29548C16.7189 3.58298 17.7398 4.83631 17.7398 6.27548C17.7398 7.65048 16.8131 8.85884 15.4864 9.21468C15.4323 9.22884 15.3773 9.23551 15.3248 9.23551Z" fill="#E23744" style="fill:#E23744;fill:color(display-p3 0.8863 0.2157 0.2667);fill-opacity:1;"/>
  <path d="M16.826 14.4992C16.8943 14.7876 17.1502 14.9809 17.4335 14.9809C17.4818 14.9809 17.5293 14.9751 17.5777 14.9642C18.4702 14.7542 19.1443 13.9584 19.1443 13.1142C19.1443 11.8051 17.5552 10.6134 15.8093 10.6134C15.4643 10.6134 15.1843 10.8934 15.1843 11.2384C15.1843 11.5834 15.4643 11.8634 15.8093 11.8634C17.0343 11.8634 17.8943 12.6742 17.8943 13.1142C17.8943 13.3201 17.6852 13.6551 17.291 13.7476C16.9552 13.8267 16.7468 14.1634 16.826 14.4992Z" fill="#E23744" style="fill:#E23744;fill:color(display-p3 0.8863 0.2157 0.2667);fill-opacity:1;"/>
  <path d="M4.67619 9.23551C4.62369 9.23551 4.56869 9.22884 4.51535 9.21468C3.18702 8.85968 2.25952 7.65131 2.25952 6.27548C2.25952 4.83631 3.28119 3.58298 4.68869 3.29548C5.02785 3.23214 5.35702 3.44548 5.42619 3.78298C5.49452 4.12131 5.27702 4.45214 4.93869 4.52131C4.11035 4.68964 3.50952 5.42798 3.50952 6.27548C3.50952 7.08548 4.05535 7.79714 4.83702 8.00631C5.17119 8.09631 5.36869 8.43884 5.28035 8.77134C5.20535 9.05134 4.95285 9.23551 4.67619 9.23551Z" fill="#E23744" style="fill:#E23744;fill:color(display-p3 0.8863 0.2157 0.2667);fill-opacity:1;"/>
  <path d="M2.42238 14.9642C2.47071 14.9759 2.51821 14.9809 2.56655 14.9809C2.84988 14.9809 3.10571 14.7876 3.17405 14.4992C3.25321 14.1634 3.04488 13.8259 2.70905 13.7476C2.31488 13.6551 2.10571 13.3201 2.10571 13.1142C2.10571 12.6742 2.96571 11.8634 4.19071 11.8634C4.53571 11.8634 4.81571 11.5834 4.81571 11.2384C4.81571 10.8934 4.53571 10.6134 4.19071 10.6134C2.44488 10.6134 0.855713 11.8051 0.855713 13.1142C0.855713 13.9584 1.52988 14.7551 2.42238 14.9642Z" fill="#E23744" style="fill:#E23744;fill:color(display-p3 0.8863 0.2157 0.2667);fill-opacity:1;"/>
</svg>