<svg xmlns="http://www.w3.org/2000/svg" width="20" height="20" viewBox="0 0 20 20" fill="none">
  <path fill-rule="evenodd" clip-rule="evenodd" d="M9.97529 10.3832H9.99898C12.311 10.3832 14.1919 8.50315 14.1919 6.19204C14.1919 3.88004 12.311 2 9.99898 2C7.68793 2 5.80697 3.88004 5.80697 6.19022C5.80151 8.49495 7.6697 10.3759 9.97529 10.3832ZM7.17394 6.19204C7.17394 4.63461 8.44155 3.36697 9.99898 3.36697C11.5573 3.36697 12.825 4.63461 12.825 6.19204C12.825 7.74948 11.5573 9.01622 9.99898 9.01622H9.97711C8.42696 9.01075 7.1703 7.74492 7.17394 6.19204Z" fill="#6B7280" style="fill:#6B7280;fill:color(display-p3 0.4196 0.4471 0.5020);fill-opacity:1;"/>
  <path fill-rule="evenodd" clip-rule="evenodd" d="M3.84247 15.5933C3.84247 18.5113 8.47653 18.5113 9.99934 18.5113C11.5221 18.5113 16.1562 18.5113 16.1562 15.5778C16.1562 13.366 13.3949 11.5652 9.99934 11.5652C6.60375 11.5652 3.84247 13.3715 3.84247 15.5933ZM5.20944 15.5933C5.20944 14.3375 7.25807 12.9322 9.99934 12.9322C12.7406 12.9322 14.7892 14.3293 14.7892 15.5778C14.7892 16.8727 12.1838 17.1443 9.99934 17.1443C7.81488 17.1443 5.20944 16.8755 5.20944 15.5933Z" fill="#6B7280" style="fill:#6B7280;fill:color(display-p3 0.4196 0.4471 0.5020);fill-opacity:1;"/>
  <path d="M15.8229 9.41959C15.5203 9.41959 15.2442 9.21819 15.1622 8.9129C15.0647 8.54838 15.2816 8.17379 15.6461 8.07537C16.5 7.84663 17.0969 7.06837 17.0969 6.18257C17.0969 5.25577 16.4408 4.44834 15.5349 4.26426C15.1649 4.18862 14.9271 3.82683 15.0018 3.45683C15.0784 3.08775 15.4374 2.85445 15.8083 2.92371C17.3475 3.23812 18.4639 4.60873 18.4639 6.18257C18.4639 7.68624 17.4505 9.00768 15.9997 9.39681C15.9405 9.4123 15.8803 9.41959 15.8229 9.41959Z" fill="#6B7280" style="fill:#6B7280;fill:color(display-p3 0.4196 0.4471 0.5020);fill-opacity:1;"/>
  <path d="M17.4647 15.1759C17.5394 15.4912 17.8192 15.7026 18.1291 15.7026C18.1819 15.7026 18.2339 15.6962 18.2867 15.6844C19.2627 15.4547 20 14.5844 20 13.6613C20 12.2296 18.2621 10.9264 16.3529 10.9264C15.9756 10.9264 15.6694 11.2326 15.6694 11.6099C15.6694 11.9872 15.9756 12.2934 16.3529 12.2934C17.6925 12.2934 18.633 13.1801 18.633 13.6613C18.633 13.8864 18.4043 14.2527 17.9732 14.3539C17.606 14.4404 17.3781 14.8086 17.4647 15.1759Z" fill="#6B7280" style="fill:#6B7280;fill:color(display-p3 0.4196 0.4471 0.5020);fill-opacity:1;"/>
  <path d="M4.17798 9.41959C4.12057 9.41959 4.06042 9.4123 4.0021 9.39681C2.54946 9.00859 1.53517 7.68715 1.53517 6.18257C1.53517 4.60873 2.65244 3.23812 4.19165 2.92371C4.56256 2.85445 4.92252 3.08775 4.99816 3.45683C5.07289 3.82683 4.83504 4.18862 4.46504 4.26426C3.5592 4.44834 2.90214 5.25577 2.90214 6.18257C2.90214 7.06837 3.49905 7.84663 4.35386 8.07537C4.7193 8.17379 4.93528 8.54838 4.83868 8.91199C4.75667 9.21819 4.48054 9.41959 4.17798 9.41959Z" fill="#6B7280" style="fill:#6B7280;fill:color(display-p3 0.4196 0.4471 0.5020);fill-opacity:1;"/>
  <path d="M1.71327 15.6844C1.76613 15.6971 1.81807 15.7026 1.87093 15.7026C2.18077 15.7026 2.46055 15.4912 2.53527 15.1759C2.62185 14.8086 2.39402 14.4395 2.02676 14.3539C1.59571 14.2527 1.36697 13.8864 1.36697 13.6613C1.36697 13.1801 2.30745 12.2934 3.64708 12.2934C4.02436 12.2934 4.33056 11.9872 4.33056 11.6099C4.33056 11.2326 4.02436 10.9264 3.64708 10.9264C1.73788 10.9264 0 12.2296 0 13.6613C0 14.5844 0.737253 15.4557 1.71327 15.6844Z" fill="#6B7280" style="fill:#6B7280;fill:color(display-p3 0.4196 0.4471 0.5020);fill-opacity:1;"/>
</svg>